<svg xmlns="http://www.w3.org/2000/svg" viewBox="0 0 800 450">
<defs>
  <radialGradient id="lg1" cx="50%" cy="0%" r="80%" gradientTransform="scale(1,0.4)">
    <stop offset="0%" stop-color="#c8e8d8" stop-opacity="0.22"/>
    <stop offset="100%" stop-color="#c8e8d8" stop-opacity="0"/>
  </radialGradient>
  <radialGradient id="lg2" cx="50%" cy="0%" r="80%" gradientTransform="scale(1,0.4)">
    <stop offset="0%" stop-color="#c8e8d8" stop-opacity="0.22"/>
    <stop offset="100%" stop-color="#c8e8d8" stop-opacity="0"/>
  </radialGradient>
  <radialGradient id="fl1" cx="50%" cy="50%" r="50%">
    <stop offset="0%" stop-color="#c0ddd0" stop-opacity="0.1"/>
    <stop offset="100%" stop-color="#c0ddd0" stop-opacity="0"/>
  </radialGradient>
  <radialGradient id="fl2" cx="50%" cy="50%" r="50%">
    <stop offset="0%" stop-color="#c0ddd0" stop-opacity="0.1"/>
    <stop offset="100%" stop-color="#c0ddd0" stop-opacity="0"/>
  </radialGradient>
</defs>

<!-- CEILING -->
<rect width="800" height="85" fill="#0c1215"/>
<rect y="82" width="800" height="3" fill="#060a0c"/>

<!-- Fluorescent light 1 -->
<rect x="110" y="10" width="185" height="20" rx="3" fill="#9ab8b0"/>
<rect x="114" y="12" width="177" height="16" rx="2" fill="#d5ede6"/>
<ellipse cx="202" cy="12" rx="160" ry="70" fill="url(#lg1)"/>

<!-- Fluorescent light 2 -->
<rect x="505" y="10" width="185" height="20" rx="3" fill="#9ab8b0"/>
<rect x="509" y="12" width="177" height="16" rx="2" fill="#d5ede6"/>
<ellipse cx="597" cy="12" rx="160" ry="70" fill="url(#lg2)"/>

<!-- BACK WALL - white concrete -->
<rect y="85" width="800" height="215" fill="#c4c8c4"/>
<rect y="85" width="800" height="215" fill="rgba(0,0,0,0.06)"/>

<!-- Brick/mortar horizontal lines -->
<line x1="0" y1="103" x2="800" y2="103" stroke="#aeb2ae" stroke-width="0.7"/>
<line x1="0" y1="121" x2="800" y2="121" stroke="#b2b6b2" stroke-width="0.5"/>
<line x1="0" y1="139" x2="800" y2="139" stroke="#aeb2ae" stroke-width="0.7"/>
<line x1="0" y1="157" x2="800" y2="157" stroke="#b2b6b2" stroke-width="0.5"/>
<line x1="0" y1="175" x2="800" y2="175" stroke="#aeb2ae" stroke-width="0.7"/>
<line x1="0" y1="193" x2="800" y2="193" stroke="#b2b6b2" stroke-width="0.5"/>
<line x1="0" y1="211" x2="800" y2="211" stroke="#aeb2ae" stroke-width="0.7"/>
<line x1="0" y1="229" x2="800" y2="229" stroke="#b2b6b2" stroke-width="0.5"/>
<line x1="0" y1="247" x2="800" y2="247" stroke="#aeb2ae" stroke-width="0.7"/>
<line x1="0" y1="265" x2="800" y2="265" stroke="#b2b6b2" stroke-width="0.5"/>
<line x1="0" y1="283" x2="800" y2="283" stroke="#aeb2ae" stroke-width="0.7"/>

<!-- LEFT WALL PADS - blue gym padding -->
<rect x="0" y="85" width="105" height="75" rx="0" fill="#1c3060" stroke="#0e1e40" stroke-width="1"/>
<rect x="0" y="159" width="105" height="75" rx="0" fill="#182858" stroke="#0e1e40" stroke-width="1"/>
<rect x="0" y="233" width="105" height="67" rx="0" fill="#1c3060" stroke="#0e1e40" stroke-width="1"/>
<!-- Vertical text on left pad -->
<text x="52" y="228" text-anchor="middle" fill="rgba(255,255,255,0.45)" font-family="Impact,sans-serif" font-size="11" letter-spacing="7" transform="rotate(-90 52 228)">TAPOUT TACTICS</text>

<!-- RIGHT WALL PADS -->
<rect x="695" y="85" width="105" height="75" rx="0" fill="#1c3060" stroke="#0e1e40" stroke-width="1"/>
<rect x="695" y="159" width="105" height="75" rx="0" fill="#182858" stroke="#0e1e40" stroke-width="1"/>
<rect x="695" y="233" width="105" height="67" rx="0" fill="#1c3060" stroke="#0e1e40" stroke-width="1"/>
<text x="748" y="228" text-anchor="middle" fill="rgba(255,255,255,0.4)" font-family="Impact,sans-serif" font-size="9" letter-spacing="5" transform="rotate(90 748 228)">CONTROL THE FIGHT</text>

<!-- ACADEMY CODE board -->
<rect x="120" y="102" width="138" height="120" rx="3" fill="#f4f0e4" stroke="#9a8c6a" stroke-width="2"/>
<rect x="122" y="104" width="134" height="28" fill="#e8e0cc"/>
<text x="189" y="122" text-anchor="middle" fill="#2a2010" font-family="Arial,sans-serif" font-size="8" font-weight="bold" letter-spacing="1">THE ACADEMY CODE</text>
<line x1="125" y1="131" x2="255" y2="131" stroke="#9a8c6a" stroke-width="0.8"/>
<text x="132" y="146" fill="#3a3020" font-family="Arial,sans-serif" font-size="8.5">1. Show up</text>
<text x="132" y="161" fill="#3a3020" font-family="Arial,sans-serif" font-size="8.5">2. Work hard</text>
<text x="132" y="176" fill="#3a3020" font-family="Arial,sans-serif" font-size="8.5">3. Respect everyone</text>
<text x="132" y="191" fill="#3a3020" font-family="Arial,sans-serif" font-size="8.5">4. Never quit</text>
<text x="132" y="213" fill="#8a6040" font-family="Arial,sans-serif" font-size="7" font-style="italic">est. 2008</text>

<!-- KANJI frame -->
<rect x="272" y="110" width="72" height="88" rx="2" fill="#eeeae0" stroke="#9a8c6a" stroke-width="2"/>
<text x="308" y="175" text-anchor="middle" fill="#1a1410" font-family="serif" font-size="50">柔</text>
<text x="308" y="155" text-anchor="middle" fill="#1a1410" font-family="serif" font-size="50">術</text>

<!-- CENTER ACADEMY BANNER -->
<rect x="355" y="100" width="230" height="118" rx="4" fill="#18285a"/>
<rect x="355" y="100" width="230" height="4" fill="#2c4490"/>
<rect x="355" y="100" width="4" height="118" fill="#2c4490"/>
<rect x="581" y="100" width="4" height="118" fill="#2c4490"/>
<!-- Banner rope/edge detail -->
<rect x="359" y="104" width="222" height="110" fill="none" stroke="rgba(255,255,255,0.1)" stroke-width="1"/>
<text x="470" y="142" text-anchor="middle" fill="#ffffff" font-family="Impact,sans-serif" font-size="32" letter-spacing="5">ACADEMY</text>
<line x1="370" y1="150" x2="570" y2="150" stroke="rgba(255,255,255,0.25)" stroke-width="1"/>
<text x="470" y="166" text-anchor="middle" fill="#7ab0d8" font-family="Arial,sans-serif" font-size="9" letter-spacing="3.5">DISCIPLINE · FOCUS · GRIT</text>
<line x1="400" y1="173" x2="540" y2="173" stroke="rgba(255,255,255,0.15)" stroke-width="0.8"/>
<text x="470" y="186" text-anchor="middle" fill="rgba(255,255,255,0.35)" font-family="Arial,sans-serif" font-size="7.5" letter-spacing="1">EST. 2008</text>
<circle cx="470" cy="204" r="10" fill="none" stroke="rgba(255,255,255,0.3)" stroke-width="1.5"/>
<text x="470" y="209" text-anchor="middle" fill="rgba(255,255,255,0.55)" font-family="Impact,sans-serif" font-size="13">A</text>

<!-- PAIN TODAY sign -->
<rect x="600" y="118" width="82" height="70" rx="3" fill="#f4f0e4" stroke="#9a8c6a" stroke-width="2"/>
<text x="641" y="140" text-anchor="middle" fill="#1a1010" font-family="Impact,sans-serif" font-size="13" letter-spacing="2">PAIN</text>
<text x="641" y="154" text-anchor="middle" fill="#3a3020" font-family="Arial,sans-serif" font-size="8">TODAY</text>
<line x1="606" y1="158" x2="676" y2="158" stroke="#9a8c6a" stroke-width="0.8"/>
<text x="641" y="170" text-anchor="middle" fill="#1a1010" font-family="Impact,sans-serif" font-size="10" letter-spacing="1">STRENGTH</text>
<text x="641" y="181" text-anchor="middle" fill="#3a3020" font-family="Arial,sans-serif" font-size="8">TOMORROW</text>

<!-- Locker cabinet suggestion (right side) -->
<rect x="690" y="200" width="40" height="80" fill="#1a2e52" stroke="#0e1e3a" stroke-width="1.5"/>
<line x1="710" y1="200" x2="710" y2="280" stroke="#0e1e3a" stroke-width="1"/>
<rect x="695" y="238" width="8" height="4" rx="1" fill="#8aa0c8" opacity="0.7"/>
<rect x="715" y="238" width="8" height="4" rx="1" fill="#8aa0c8" opacity="0.7"/>

<!-- Trophy shelf (right side near locker) -->
<rect x="682" y="180" width="60" height="5" fill="#5a4820" rx="1"/>
<rect x="696" y="160" width="12" height="22" fill="#c8a820" rx="1"/>
<rect x="700" y="154" width="4" height="8" fill="#d8b830"/>
<ellipse cx="702" cy="153" rx="5" ry="3" fill="#d8b830"/>
<rect x="714" y="164" width="10" height="18" fill="#c0a018" rx="1"/>
<ellipse cx="719" cy="163" rx="4" ry="2.5" fill="#c8aa20"/>

<!-- WALL/FLOOR TRANSITION -->
<rect y="297" width="800" height="5" fill="#0a121c"/>

<!-- FLOOR - blue tatami -->
<rect y="300" width="800" height="150" fill="#16263a"/>

<!-- Tatami tile grid - horizontal -->
<line x1="0" y1="330" x2="800" y2="330" stroke="#1c3048" stroke-width="1.5"/>
<line x1="0" y1="360" x2="800" y2="360" stroke="#1c3048" stroke-width="1.5"/>
<line x1="0" y1="390" x2="800" y2="390" stroke="#1c3048" stroke-width="1.5"/>
<line x1="0" y1="420" x2="800" y2="420" stroke="#1c3048" stroke-width="1.5"/>
<line x1="0" y1="450" x2="800" y2="450" stroke="#1c3048" stroke-width="1.5"/>

<!-- Tatami tile grid - vertical -->
<line x1="100" y1="300" x2="100" y2="450" stroke="#1c3048" stroke-width="1"/>
<line x1="200" y1="300" x2="200" y2="450" stroke="#1c3048" stroke-width="1"/>
<line x1="300" y1="300" x2="300" y2="450" stroke="#1c3048" stroke-width="1"/>
<line x1="400" y1="300" x2="400" y2="450" stroke="#1c3048" stroke-width="1"/>
<line x1="500" y1="300" x2="500" y2="450" stroke="#1c3048" stroke-width="1"/>
<line x1="600" y1="300" x2="600" y2="450" stroke="#1c3048" stroke-width="1"/>
<line x1="700" y1="300" x2="700" y2="450" stroke="#1c3048" stroke-width="1"/>

<!-- Branded floor text -->
<text x="400" y="365" text-anchor="middle" fill="rgba(255,255,255,0.06)" font-family="Impact,sans-serif" font-size="40" letter-spacing="5">TAPOUT</text>
<text x="400" y="410" text-anchor="middle" fill="rgba(255,255,255,0.06)" font-family="Impact,sans-serif" font-size="40" letter-spacing="5">TACTICS</text>

<!-- Floor light pools from ceiling fixtures -->
<ellipse cx="202" cy="390" rx="230" ry="90" fill="url(#fl1)"/>
<ellipse cx="597" cy="390" rx="230" ry="90" fill="url(#fl2)"/>

<!-- Side depth shadow -->
<rect width="100" height="450" fill="rgba(0,0,0,0.4)"/>
<rect x="700" width="100" height="450" fill="rgba(0,0,0,0.4)"/>

<!-- Ceiling depth shadow -->
<rect width="800" height="40" fill="rgba(0,0,0,0.35)"/>

<!-- Bottom floor depth -->
<rect y="420" width="800" height="30" fill="rgba(0,0,0,0.25)"/>
</svg>